<svg width="394" height="51" viewBox="0 0 394 51" fill="none" xmlns="http://www.w3.org/2000/svg">
<path fill-rule="evenodd" clip-rule="evenodd" d="M31.1557 42.0785L24.6357 32.5717L18.1138 42.0035C20.1743 42.8726 22.3883 43.3268 24.6272 43.3397C26.8661 43.3526 29.0852 42.9239 31.1557 42.0785Z" fill="#FFCD06"/>
<mask id="mask0_10119_278" style="mask-type:luminance" maskUnits="userSpaceOnUse" x="0" y="2" width="50" height="47">
<path d="M0.03125 2.28217H49.1664V48.3431H0.03125V2.28217Z" fill="white"/>
</mask>
<g mask="url(#mask0_10119_278)">
<path fill-rule="evenodd" clip-rule="evenodd" d="M24.7096 2.28373C21.4161 2.24832 18.1483 2.8619 15.0956 4.0889C12.0428 5.3159 9.2659 7.13192 6.92574 9.43169C2.48066 14.0012 -0.0388138 20.117 0.0331712 26.4543V26.6025C-0.0381887 31.143 1.20978 35.6077 3.62789 39.463C6.04599 43.3184 9.53192 46.4011 13.6689 48.3429L18.114 41.9306C12.2598 39.3521 8.48061 33.2344 8.48061 26.4543V26.3079C8.48061 16.8011 15.3732 9.65312 24.5621 9.65312C28.9352 9.5799 33.1571 11.4209 36.1949 14.5904C39.172 17.828 40.7892 22.0723 40.7155 26.4543V26.6025C40.7155 33.4559 36.9363 39.4985 31.0821 42.0038L35.3796 48.2679C43.9026 44.2894 49.3123 35.7397 49.1648 26.4543V26.3079C49.1941 23.172 48.6005 20.0611 47.4179 17.1528C46.2352 14.2446 44.4867 11.596 42.2722 9.35848C37.6777 4.71579 31.3035 2.21051 24.7096 2.28373Z" fill="#212121"/>
</g>
<path d="M87.2213 48.7091L71.529 25.9083L64.1522 33.7544V48.7091H56.7755V1.76624H64.1522V15.8491V25.0365H64.2864L71.0595 17.5927L85.4777 1.76624H94.3298L77.028 20.6104L95.8722 48.7091H87.2213Z" fill="#212121"/>
<path d="M111.183 1.76624V37.0404H103.806V1.76624H111.183ZM107.494 49.3126C106.153 49.3126 105.102 48.9326 104.342 48.1726C103.582 47.4126 103.202 46.4513 103.202 45.289C103.202 44.1266 103.582 43.1877 104.342 42.4724C105.102 41.7124 106.153 41.3323 107.494 41.3323C108.88 41.3323 109.953 41.7124 110.713 42.4724C111.473 43.1877 111.853 44.1266 111.853 45.289C111.853 46.4961 111.473 47.4796 110.713 48.2396C109.953 48.955 108.88 49.3126 107.494 49.3126Z" fill="#212121"/>
<path d="M361.609 49.6338V1.64725H369.15V42.573H393.212V49.6338H361.609Z" fill="#FFCD06"/>
<path d="M342.878 38.4598H319.913L315.389 49.6338H307.437L327.248 1.64725H335.68L355.423 49.6338H347.334L342.878 38.4598ZM340.136 31.6046L335.475 20.0193C332.87 13.5296 331.544 10.262 331.499 10.2163H331.293C331.202 10.3077 329.853 13.5753 327.248 20.0193L322.655 31.6046H340.136Z" fill="#FFCD06"/>
<path d="M311.262 8.70813H295.358V49.6338H287.817V8.70813H271.913V1.64725H311.262V8.70813Z" fill="#FFCD06"/>
<path d="M257.174 49.6338V1.64725H264.715V49.6338H257.174Z" fill="#FFCD06"/>
<path d="M248.597 49.6338H241.811C241.811 48.2628 241.811 47.1659 241.811 46.3433C241.856 45.475 241.879 44.8809 241.879 44.561C241.879 44.1953 241.879 43.9668 241.879 43.8754H241.742C240.143 45.5664 237.926 47.0974 235.093 48.4684C232.305 49.8395 229.083 50.525 225.427 50.525C218.48 50.525 212.63 48.2171 207.877 43.6012C203.17 38.9397 200.817 32.9299 200.817 25.572C200.817 18.1683 203.147 12.1814 207.809 7.61128C212.516 2.99543 218.457 0.6875 225.632 0.6875C230.888 0.6875 235.458 1.94429 239.343 4.45788C243.228 6.97146 245.97 10.1706 247.569 14.0552L240.166 16.0432C239.023 13.9409 237.241 12.0443 234.818 10.3534C232.442 8.66242 229.289 7.81694 225.358 7.81694C220.331 7.81694 216.241 9.43934 213.087 12.6841C209.98 15.8833 208.426 20.1792 208.426 25.572C208.426 30.9648 210.048 35.2835 213.293 38.5284C216.584 41.7732 220.811 43.3956 225.975 43.3956C229.723 43.3956 232.968 42.6186 235.71 41.0648C238.497 39.5109 240.44 37.82 241.537 35.9919V30.6448H228.032V23.6525H248.597V49.6338Z" fill="#FFCD06"/>
<path d="M186.078 49.6338V1.64725H193.619V49.6338H186.078Z" fill="#FFCD06"/>
<path d="M135.601 1.64725H153.493C160.897 1.64725 166.975 3.86377 171.728 8.29682C176.481 12.7299 178.857 18.5797 178.857 25.8462C178.857 33.067 176.504 38.8483 171.796 43.1899C167.089 47.4859 161.079 49.6338 153.767 49.6338H135.601V1.64725ZM143.142 42.573H153.356C158.474 42.573 162.725 41.1562 166.107 38.3227C169.534 35.4892 171.248 31.3304 171.248 25.8462C171.248 20.362 169.511 16.1346 166.038 13.164C162.61 10.1934 158.292 8.70813 153.082 8.70813H143.142V42.573Z" fill="#FFCD06"/>
</svg>
