<svg width="50" height="50" viewBox="0 0 50 50" fill="none" xmlns="http://www.w3.org/2000/svg">
<path fill-rule="evenodd" clip-rule="evenodd" d="M31.1557 42.0785L24.6357 32.5717L18.1138 42.0035C20.1743 42.8726 22.3883 43.3268 24.6272 43.3397C26.8661 43.3526 29.0852 42.9239 31.1557 42.0785Z" fill="#FFCD06"/>
<mask id="mask0_10119_278" style="mask-type:luminance" maskUnits="userSpaceOnUse" x="0" y="2" width="50" height="47">
<path d="M0.03125 2.28217H49.1664V48.3431H0.03125V2.28217Z" fill="white"/>
</mask>
<g mask="url(#mask0_10119_278)">
<path fill-rule="evenodd" clip-rule="evenodd" d="M24.7096 2.28373C21.4161 2.24832 18.1483 2.8619 15.0956 4.0889C12.0428 5.3159 9.2659 7.13192 6.92574 9.43169C2.48066 14.0012 -0.0388138 20.117 0.0331712 26.4543V26.6025C-0.0381887 31.143 1.20978 35.6077 3.62789 39.463C6.04599 43.3184 9.53192 46.4011 13.6689 48.3429L18.114 41.9306C12.2598 39.3521 8.48061 33.2344 8.48061 26.4543V26.3079C8.48061 16.8011 15.3732 9.65312 24.5621 9.65312C28.9352 9.5799 33.1571 11.4209 36.1949 14.5904C39.172 17.828 40.7892 22.0723 40.7155 26.4543V26.6025C40.7155 33.4559 36.9363 39.4985 31.0821 42.0038L35.3796 48.2679C43.9026 44.2894 49.3123 35.7397 49.1648 26.4543V26.3079C49.1941 23.172 48.6005 20.0611 47.4179 17.1528C46.2352 14.2446 44.4867 11.596 42.2722 9.35848C37.6777 4.71579 31.3035 2.21051 24.7096 2.28373Z" fill="#212121"/>
</g>

</svg>
